<?xml version="1.0" encoding="UTF-8"?>
<svg xmlns="http://www.w3.org/2000/svg" xmlns:xlink="http://www.w3.org/1999/xlink" width="32px" height="32px" viewBox="0 0 32 32" version="1.1">
<g id="surface1">
<path style=" stroke:none;fill-rule:evenodd;fill:rgb(0%,0%,0%);fill-opacity:1;" d="M 24 7 L 8 7 C 6.34375 7 5 8.34375 5 10 L 5 22 C 5 23.65625 6.34375 25 8 25 L 24 25 C 25.65625 25 27 23.65625 27 22 L 27 10 C 27 8.34375 25.65625 7 24 7 M 8 4 C 4.6875 4 2 6.6875 2 10 L 2 22 C 2 25.3125 4.6875 28 8 28 L 24 28 C 27.3125 28 30 25.3125 30 22 L 30 10 C 30 6.6875 27.3125 4 24 4 Z M 8.941406 21.058594 C 8.355469 20.472656 8.355469 19.527344 8.941406 18.941406 L 11.878906 16 L 8.941406 13.058594 C 8.390625 12.46875 8.40625 11.546875 8.976562 10.976562 C 9.546875 10.40625 10.46875 10.390625 11.058594 10.941406 L 15.058594 14.941406 C 15.644531 15.527344 15.644531 16.472656 15.058594 17.058594 L 11.058594 21.058594 C 10.472656 21.644531 9.527344 21.644531 8.941406 21.058594 M 17.5 19 C 16.671875 19 16 19.671875 16 20.5 C 16 21.328125 16.671875 22 17.5 22 L 22.5 22 C 23.328125 22 24 21.328125 24 20.5 C 24 19.671875 23.328125 19 22.5 19 Z M 17.5 19 "/>
</g>
</svg>
